<mxfile host="Electron" agent="Mozilla/5.0 (Windows NT 10.0; Win64; x64) AppleWebKit/537.36 (KHTML, like Gecko) draw.io/26.1.1 Chrome/132.0.6834.210 Electron/34.3.3 Safari/537.36" version="26.1.1">
  <diagram name="Page-1" id="uU92Kw3lqkmTCdzw7q4H">
    <mxGraphModel dx="1120" dy="572" grid="1" gridSize="10" guides="1" tooltips="1" connect="1" arrows="1" fold="1" page="1" pageScale="1" pageWidth="827" pageHeight="1169" math="0" shadow="0">
      <root>
        <mxCell id="0" />
        <mxCell id="1" parent="0" />
        <mxCell id="pgydy8cLJcY6abRsHf0A-5" value="&lt;font style=&quot;font-size: 18px;&quot;&gt;Utilisateurs&lt;/font&gt;" style="swimlane;whiteSpace=wrap;html=1;startSize=40;" parent="1" vertex="1">
          <mxGeometry x="30" y="30" width="175" height="170" as="geometry" />
        </mxCell>
        <mxCell id="pgydy8cLJcY6abRsHf0A-6" value="&lt;font style=&quot;font-size: 14px;&quot;&gt;&lt;u&gt;id_utilisateur&lt;/u&gt;&lt;/font&gt;" style="text;html=1;align=center;verticalAlign=middle;resizable=0;points=[];autosize=1;strokeColor=none;fillColor=none;" parent="pgydy8cLJcY6abRsHf0A-5" vertex="1">
          <mxGeometry x="30" y="40" width="100" height="30" as="geometry" />
        </mxCell>
        <mxCell id="pgydy8cLJcY6abRsHf0A-8" value="&lt;font style=&quot;font-size: 14px;&quot;&gt;nom_utilisateur&lt;/font&gt;" style="text;html=1;align=center;verticalAlign=middle;resizable=0;points=[];autosize=1;strokeColor=none;fillColor=none;" parent="pgydy8cLJcY6abRsHf0A-5" vertex="1">
          <mxGeometry x="20" y="60" width="120" height="30" as="geometry" />
        </mxCell>
        <mxCell id="pgydy8cLJcY6abRsHf0A-9" value="&lt;font style=&quot;font-size: 14px;&quot;&gt;telephone_utilisateur&lt;/font&gt;" style="text;html=1;align=center;verticalAlign=middle;resizable=0;points=[];autosize=1;strokeColor=none;fillColor=none;" parent="pgydy8cLJcY6abRsHf0A-5" vertex="1">
          <mxGeometry x="5" y="120" width="150" height="30" as="geometry" />
        </mxCell>
        <mxCell id="pgydy8cLJcY6abRsHf0A-7" value="&lt;font style=&quot;font-size: 14px;&quot;&gt;email_utilisateur&lt;/font&gt;" style="text;html=1;align=center;verticalAlign=middle;resizable=0;points=[];autosize=1;strokeColor=none;fillColor=none;" parent="pgydy8cLJcY6abRsHf0A-5" vertex="1">
          <mxGeometry x="20" y="100" width="120" height="30" as="geometry" />
        </mxCell>
        <mxCell id="GsFMxOfKCcQZ88OjYSXC-1" value="&lt;font style=&quot;font-size: 14px;&quot;&gt;prenoms_utilisateur&lt;/font&gt;" style="text;html=1;align=center;verticalAlign=middle;resizable=0;points=[];autosize=1;strokeColor=none;fillColor=none;" parent="pgydy8cLJcY6abRsHf0A-5" vertex="1">
          <mxGeometry x="5" y="80" width="150" height="30" as="geometry" />
        </mxCell>
        <mxCell id="nq1Z0Qpnvur4yR_7KQos-1" value="&lt;font style=&quot;font-size: 14px;&quot;&gt;mot_de_passe_utilisateur&lt;/font&gt;" style="text;html=1;align=center;verticalAlign=middle;resizable=0;points=[];autosize=1;strokeColor=none;fillColor=none;" parent="pgydy8cLJcY6abRsHf0A-5" vertex="1">
          <mxGeometry x="-5" y="140" width="180" height="30" as="geometry" />
        </mxCell>
        <mxCell id="pgydy8cLJcY6abRsHf0A-12" value="&lt;font style=&quot;font-size: 18px;&quot;&gt;Matieres&lt;/font&gt;" style="swimlane;whiteSpace=wrap;html=1;startSize=40;" parent="1" vertex="1">
          <mxGeometry x="660" y="40" width="150" height="150" as="geometry" />
        </mxCell>
        <mxCell id="pgydy8cLJcY6abRsHf0A-13" value="&lt;font style=&quot;font-size: 14px;&quot;&gt;&lt;u&gt;code_ue&lt;/u&gt;&lt;/font&gt;" style="text;html=1;align=center;verticalAlign=middle;resizable=0;points=[];autosize=1;strokeColor=none;fillColor=none;" parent="pgydy8cLJcY6abRsHf0A-12" vertex="1">
          <mxGeometry x="28" y="40" width="80" height="30" as="geometry" />
        </mxCell>
        <mxCell id="pgydy8cLJcY6abRsHf0A-14" value="&lt;span style=&quot;font-size: 14px;&quot;&gt;nom_ue&lt;/span&gt;" style="text;html=1;align=center;verticalAlign=middle;resizable=0;points=[];autosize=1;strokeColor=none;fillColor=none;" parent="pgydy8cLJcY6abRsHf0A-12" vertex="1">
          <mxGeometry x="33" y="60" width="70" height="30" as="geometry" />
        </mxCell>
        <mxCell id="pgydy8cLJcY6abRsHf0A-17" value="&lt;font style=&quot;font-size: 14px;&quot;&gt;nombre_heure&lt;/font&gt;" style="text;html=1;align=center;verticalAlign=middle;resizable=0;points=[];autosize=1;strokeColor=none;fillColor=none;" parent="pgydy8cLJcY6abRsHf0A-12" vertex="1">
          <mxGeometry x="20" y="80" width="110" height="30" as="geometry" />
        </mxCell>
        <mxCell id="GsFMxOfKCcQZ88OjYSXC-2" value="&lt;font style=&quot;font-size: 14px;&quot;&gt;nombre_credit&lt;/font&gt;" style="text;html=1;align=center;verticalAlign=middle;resizable=0;points=[];autosize=1;strokeColor=none;fillColor=none;" parent="pgydy8cLJcY6abRsHf0A-12" vertex="1">
          <mxGeometry x="20" y="120" width="110" height="30" as="geometry" />
        </mxCell>
        <mxCell id="GsFMxOfKCcQZ88OjYSXC-27" value="&lt;font style=&quot;font-size: 14px;&quot;&gt;nombre_total_heure&lt;/font&gt;" style="text;html=1;align=center;verticalAlign=middle;resizable=0;points=[];autosize=1;strokeColor=none;fillColor=none;" parent="pgydy8cLJcY6abRsHf0A-12" vertex="1">
          <mxGeometry y="100" width="150" height="30" as="geometry" />
        </mxCell>
        <mxCell id="pgydy8cLJcY6abRsHf0A-18" value="&lt;font style=&quot;font-size: 18px;&quot;&gt;Classes&lt;/font&gt;" style="swimlane;whiteSpace=wrap;html=1;startSize=40;" parent="1" vertex="1">
          <mxGeometry x="560" y="420" width="140" height="150" as="geometry" />
        </mxCell>
        <mxCell id="pgydy8cLJcY6abRsHf0A-19" value="&lt;font style=&quot;font-size: 14px;&quot;&gt;&lt;u&gt;code_classe&lt;/u&gt;&lt;/font&gt;" style="text;html=1;align=center;verticalAlign=middle;resizable=0;points=[];autosize=1;strokeColor=none;fillColor=none;" parent="pgydy8cLJcY6abRsHf0A-18" vertex="1">
          <mxGeometry x="20" y="40" width="100" height="30" as="geometry" />
        </mxCell>
        <mxCell id="pgydy8cLJcY6abRsHf0A-20" value="&lt;font style=&quot;font-size: 14px;&quot;&gt;nom_classe&lt;/font&gt;" style="text;html=1;align=center;verticalAlign=middle;resizable=0;points=[];autosize=1;strokeColor=none;fillColor=none;" parent="pgydy8cLJcY6abRsHf0A-18" vertex="1">
          <mxGeometry x="20" y="60" width="100" height="30" as="geometry" />
        </mxCell>
        <mxCell id="pgydy8cLJcY6abRsHf0A-21" value="&lt;font style=&quot;font-size: 14px;&quot;&gt;effectif_classe&lt;/font&gt;" style="text;html=1;align=center;verticalAlign=middle;resizable=0;points=[];autosize=1;strokeColor=none;fillColor=none;" parent="pgydy8cLJcY6abRsHf0A-18" vertex="1">
          <mxGeometry x="15" y="100" width="110" height="30" as="geometry" />
        </mxCell>
        <mxCell id="pgydy8cLJcY6abRsHf0A-22" value="&lt;font style=&quot;font-size: 14px;&quot;&gt;semestre&lt;/font&gt;" style="text;html=1;align=center;verticalAlign=middle;resizable=0;points=[];autosize=1;strokeColor=none;fillColor=none;" parent="pgydy8cLJcY6abRsHf0A-18" vertex="1">
          <mxGeometry x="30" y="120" width="80" height="30" as="geometry" />
        </mxCell>
        <mxCell id="pgydy8cLJcY6abRsHf0A-23" value="&lt;font style=&quot;font-size: 14px;&quot;&gt;niveau&lt;/font&gt;" style="text;html=1;align=center;verticalAlign=middle;resizable=0;points=[];autosize=1;strokeColor=none;fillColor=none;" parent="pgydy8cLJcY6abRsHf0A-18" vertex="1">
          <mxGeometry x="40" y="80" width="60" height="30" as="geometry" />
        </mxCell>
        <mxCell id="pgydy8cLJcY6abRsHf0A-41" value="" style="group" parent="1" vertex="1" connectable="0">
          <mxGeometry x="340" y="110" width="200" height="150" as="geometry" />
        </mxCell>
        <mxCell id="pgydy8cLJcY6abRsHf0A-33" value="" style="shape=hexagon;perimeter=hexagonPerimeter2;whiteSpace=wrap;html=1;fixedSize=1;" parent="pgydy8cLJcY6abRsHf0A-41" vertex="1">
          <mxGeometry x="-5" y="-0.6352941176470588" width="200" height="150" as="geometry" />
        </mxCell>
        <mxCell id="pgydy8cLJcY6abRsHf0A-34" value="" style="line;strokeWidth=1;rotatable=0;dashed=0;labelPosition=right;align=left;verticalAlign=middle;spacingTop=0;spacingLeft=6;points=[];portConstraint=eastwest;" parent="pgydy8cLJcY6abRsHf0A-41" vertex="1">
          <mxGeometry x="2.5" y="42.857142857142854" width="185" height="10.714285714285714" as="geometry" />
        </mxCell>
        <mxCell id="pgydy8cLJcY6abRsHf0A-35" value="&lt;font style=&quot;font-size: 18px;&quot;&gt;Enseignements&lt;/font&gt;" style="text;align=center;fontStyle=1;verticalAlign=middle;spacingLeft=3;spacingRight=3;strokeColor=none;rotatable=0;points=[[0,0.5],[1,0.5]];portConstraint=eastwest;html=1;" parent="pgydy8cLJcY6abRsHf0A-41" vertex="1">
          <mxGeometry x="55" y="10.714285714285714" width="80" height="27.857142857142858" as="geometry" />
        </mxCell>
        <mxCell id="pgydy8cLJcY6abRsHf0A-37" value="&lt;font style=&quot;font-size: 14px;&quot;&gt;&lt;u&gt;id_enseignement&lt;/u&gt;&lt;/font&gt;" style="text;html=1;align=center;verticalAlign=middle;resizable=0;points=[];autosize=1;strokeColor=none;fillColor=none;" parent="pgydy8cLJcY6abRsHf0A-41" vertex="1">
          <mxGeometry x="30" y="48.53319327731092" width="130" height="30" as="geometry" />
        </mxCell>
        <mxCell id="pgydy8cLJcY6abRsHf0A-38" value="&lt;span style=&quot;font-size: 14px;&quot;&gt;heure_debut&lt;/span&gt;" style="text;html=1;align=center;verticalAlign=middle;resizable=0;points=[];autosize=1;strokeColor=none;fillColor=none;" parent="pgydy8cLJcY6abRsHf0A-41" vertex="1">
          <mxGeometry x="50" y="88.23151260504201" width="100" height="30" as="geometry" />
        </mxCell>
        <mxCell id="pgydy8cLJcY6abRsHf0A-40" value="&lt;span style=&quot;font-size: 14px;&quot;&gt;heure_fin&lt;/span&gt;" style="text;html=1;align=center;verticalAlign=middle;resizable=0;points=[];autosize=1;strokeColor=none;fillColor=none;" parent="pgydy8cLJcY6abRsHf0A-41" vertex="1">
          <mxGeometry x="60" y="105.88361344537813" width="80" height="30" as="geometry" />
        </mxCell>
        <mxCell id="YUZ5DjeuogEYY8yoDZdh-1" value="&lt;font style=&quot;font-size: 14px;&quot;&gt;date_enseignement&lt;/font&gt;" style="text;html=1;align=center;verticalAlign=middle;resizable=0;points=[];autosize=1;strokeColor=none;fillColor=none;" parent="pgydy8cLJcY6abRsHf0A-41" vertex="1">
          <mxGeometry x="25" y="69.96176470588236" width="150" height="30" as="geometry" />
        </mxCell>
        <mxCell id="pgydy8cLJcY6abRsHf0A-48" value="1,n" style="text;html=1;align=center;verticalAlign=middle;whiteSpace=wrap;rounded=0;" parent="1" vertex="1">
          <mxGeometry x="190" y="80" width="60" height="30" as="geometry" />
        </mxCell>
        <mxCell id="pgydy8cLJcY6abRsHf0A-49" value="1,n" style="text;html=1;align=center;verticalAlign=middle;whiteSpace=wrap;rounded=0;" parent="1" vertex="1">
          <mxGeometry x="610" y="370" width="60" height="30" as="geometry" />
        </mxCell>
        <mxCell id="pgydy8cLJcY6abRsHf0A-50" value="1,n" style="text;html=1;align=center;verticalAlign=middle;whiteSpace=wrap;rounded=0;" parent="1" vertex="1">
          <mxGeometry x="600" y="90" width="60" height="30" as="geometry" />
        </mxCell>
        <mxCell id="YUZ5DjeuogEYY8yoDZdh-5" style="edgeStyle=orthogonalEdgeStyle;rounded=0;orthogonalLoop=1;jettySize=auto;html=1;exitX=1;exitY=0.5;exitDx=0;exitDy=0;entryX=0.023;entryY=0.563;entryDx=0;entryDy=0;entryPerimeter=0;" parent="1" source="pgydy8cLJcY6abRsHf0A-5" target="pgydy8cLJcY6abRsHf0A-33" edge="1">
          <mxGeometry relative="1" as="geometry" />
        </mxCell>
        <mxCell id="YUZ5DjeuogEYY8yoDZdh-6" style="edgeStyle=orthogonalEdgeStyle;rounded=0;orthogonalLoop=1;jettySize=auto;html=1;exitX=0;exitY=0.5;exitDx=0;exitDy=0;entryX=0.983;entryY=0.563;entryDx=0;entryDy=0;entryPerimeter=0;" parent="1" source="pgydy8cLJcY6abRsHf0A-12" target="pgydy8cLJcY6abRsHf0A-33" edge="1">
          <mxGeometry relative="1" as="geometry">
            <mxPoint x="560" y="200" as="targetPoint" />
          </mxGeometry>
        </mxCell>
        <mxCell id="GsFMxOfKCcQZ88OjYSXC-4" style="edgeStyle=orthogonalEdgeStyle;rounded=0;orthogonalLoop=1;jettySize=auto;html=1;exitX=0.5;exitY=0;exitDx=0;exitDy=0;entryX=0.5;entryY=1;entryDx=0;entryDy=0;" parent="1" source="pgydy8cLJcY6abRsHf0A-18" target="pgydy8cLJcY6abRsHf0A-33" edge="1">
          <mxGeometry relative="1" as="geometry">
            <mxPoint x="440" y="270" as="targetPoint" />
          </mxGeometry>
        </mxCell>
        <mxCell id="GsFMxOfKCcQZ88OjYSXC-24" style="edgeStyle=orthogonalEdgeStyle;rounded=0;orthogonalLoop=1;jettySize=auto;html=1;exitX=0.5;exitY=0;exitDx=0;exitDy=0;entryX=0.5;entryY=1;entryDx=0;entryDy=0;" parent="1" source="GsFMxOfKCcQZ88OjYSXC-5" target="GsFMxOfKCcQZ88OjYSXC-12" edge="1">
          <mxGeometry relative="1" as="geometry" />
        </mxCell>
        <mxCell id="GsFMxOfKCcQZ88OjYSXC-5" value="&lt;font style=&quot;font-size: 18px;&quot;&gt;Type_utilisateurs&lt;/font&gt;" style="swimlane;whiteSpace=wrap;html=1;startSize=40;" parent="1" vertex="1">
          <mxGeometry x="70" y="560" width="180" height="100" as="geometry" />
        </mxCell>
        <mxCell id="GsFMxOfKCcQZ88OjYSXC-6" value="&lt;font style=&quot;font-size: 14px;&quot;&gt;&lt;u&gt;code_type_utilisateur&lt;/u&gt;&lt;/font&gt;" style="text;html=1;align=center;verticalAlign=middle;resizable=0;points=[];autosize=1;strokeColor=none;fillColor=none;" parent="GsFMxOfKCcQZ88OjYSXC-5" vertex="1">
          <mxGeometry x="10" y="40" width="160" height="30" as="geometry" />
        </mxCell>
        <mxCell id="GsFMxOfKCcQZ88OjYSXC-7" value="&lt;span style=&quot;font-size: 14px;&quot;&gt;libelle_type_utilisateur&lt;/span&gt;" style="text;html=1;align=center;verticalAlign=middle;resizable=0;points=[];autosize=1;strokeColor=none;fillColor=none;" parent="GsFMxOfKCcQZ88OjYSXC-5" vertex="1">
          <mxGeometry x="10" y="60" width="160" height="30" as="geometry" />
        </mxCell>
        <mxCell id="GsFMxOfKCcQZ88OjYSXC-11" value="" style="group" parent="1" vertex="1" connectable="0">
          <mxGeometry x="50" y="370" width="200" height="90" as="geometry" />
        </mxCell>
        <mxCell id="GsFMxOfKCcQZ88OjYSXC-12" value="" style="shape=hexagon;perimeter=hexagonPerimeter2;whiteSpace=wrap;html=1;fixedSize=1;" parent="GsFMxOfKCcQZ88OjYSXC-11" vertex="1">
          <mxGeometry x="-5" y="-0.38117647058823534" width="200" height="90" as="geometry" />
        </mxCell>
        <mxCell id="GsFMxOfKCcQZ88OjYSXC-13" value="" style="line;strokeWidth=1;rotatable=0;dashed=0;labelPosition=right;align=left;verticalAlign=middle;spacingTop=0;spacingLeft=6;points=[];portConstraint=eastwest;" parent="GsFMxOfKCcQZ88OjYSXC-11" vertex="1">
          <mxGeometry x="2.5" y="25.71428571428572" width="185" height="6.42857142857143" as="geometry" />
        </mxCell>
        <mxCell id="GsFMxOfKCcQZ88OjYSXC-14" value="&lt;font style=&quot;font-size: 18px;&quot;&gt;Appartenir&lt;/font&gt;" style="text;align=center;fontStyle=1;verticalAlign=middle;spacingLeft=3;spacingRight=3;strokeColor=none;rotatable=0;points=[[0,0.5],[1,0.5]];portConstraint=eastwest;html=1;" parent="GsFMxOfKCcQZ88OjYSXC-11" vertex="1">
          <mxGeometry x="60" y="6.42857142857143" width="80" height="16.714285714285715" as="geometry" />
        </mxCell>
        <mxCell id="GsFMxOfKCcQZ88OjYSXC-23" style="edgeStyle=orthogonalEdgeStyle;rounded=0;orthogonalLoop=1;jettySize=auto;html=1;exitX=0.5;exitY=1;exitDx=0;exitDy=0;entryX=0.43;entryY=0.015;entryDx=0;entryDy=0;entryPerimeter=0;" parent="1" source="pgydy8cLJcY6abRsHf0A-5" target="GsFMxOfKCcQZ88OjYSXC-12" edge="1">
          <mxGeometry relative="1" as="geometry" />
        </mxCell>
        <mxCell id="GsFMxOfKCcQZ88OjYSXC-25" value="1,1" style="text;html=1;align=center;verticalAlign=middle;whiteSpace=wrap;rounded=0;" parent="1" vertex="1">
          <mxGeometry x="100" y="220" width="60" height="30" as="geometry" />
        </mxCell>
        <mxCell id="GsFMxOfKCcQZ88OjYSXC-26" value="1,n" style="text;html=1;align=center;verticalAlign=middle;whiteSpace=wrap;rounded=0;" parent="1" vertex="1">
          <mxGeometry x="140" y="510" width="60" height="30" as="geometry" />
        </mxCell>
      </root>
    </mxGraphModel>
  </diagram>
</mxfile>
